<svg width="189" height="41" viewBox="0 0 189 41" fill="none" xmlns="http://www.w3.org/2000/svg">
<path d="M81 17.9264V33.311H74.9333V20.0669C74.9333 17.6589 73 15.7191 70.6 15.7191C68.2 15.7191 66.2667 17.6589 66.2667 20.0669V33.3779H60.2V10.4348H66.2667V11.7726C69 9.29766 72.7333 9.56522 72.7333 9.56522C77.3333 9.56522 81 13.311 81 17.9264ZM156.733 10.4348H162.8V33.311H156.733V32.5084C154.933 33.5786 152.8 34.1806 150.533 34.1806C143.733 34.1806 138.267 28.6957 138.267 21.8729C138.267 15.0502 143.733 9.56522 150.533 9.56522C152.8 9.56522 154.933 10.1672 156.733 11.2375V10.4348ZM157.067 21.8729C157.067 18.2609 154.133 15.3177 150.533 15.3177C146.933 15.3177 144 18.2609 144 21.8729C144 25.485 146.933 28.4281 150.533 28.4281C154.133 28.495 157.067 25.5518 157.067 21.8729ZM135.067 33.311H129V32.5084C127.2 33.5786 125.067 34.1806 122.8 34.1806C116 34.1806 110.533 28.6957 110.533 21.8729C110.533 15.0502 116 9.56522 122.8 9.56522C125.067 9.56522 127.2 10.1672 129 11.2375V3.47826H135.067V33.311ZM129.4 21.8729C129.4 18.2609 126.467 15.3177 122.867 15.3177C119.267 15.3177 116.333 18.2609 116.333 21.8729C116.333 25.485 119.267 28.4281 122.867 28.4281C126.467 28.495 129.4 25.5518 129.4 21.8729ZM93.5333 3.47826H87.4667V8.42809C87.4667 9.56522 86.5333 10.5017 85.4 10.5017H83.2V15.9866H87.4667V27.4248C87.4667 30.7023 90.1333 33.3779 93.4 33.3779H97.8667V27.893H95.6667C94.5333 27.893 93.6 26.9565 93.6 25.8194V15.9197H97.8667V10.4348H93.6V3.47826H93.5333ZM55.7333 21.8729C55.7333 22.4749 55.6667 23.0769 55.6 23.612H53.9333H49.8H37.1333C37.8667 26.4214 40.4 28.4281 43.4667 28.4281C45.8667 28.4281 47.9333 27.1572 49.0667 25.2843L54.5333 27.1572C52.5333 31.3043 48.3333 34.1806 43.4667 34.1806C36.6667 34.1806 31.2 28.6957 31.2 21.8729C31.2 15.0502 36.6667 9.56522 43.4667 9.56522C50.2667 9.56522 55.7333 15.1171 55.7333 21.8729ZM49.4667 19.1304C48.4 16.8562 46.1333 15.3177 43.5333 15.3177C40.9333 15.3177 38.6 16.9231 37.6 19.1304H49.4667ZM182.133 10.4348L177.4 25.5518H177.333L172.667 10.4348H165.867L174.2 33.311L171.6 40.3344H178.067L189 10.4348H182.133ZM6.66667 13.3779H13.3333V6.68896H0V10.4348V13.3779V26.6221V33.311H6.66667H13.3333V26.6221H6.66667V13.3779ZM26.6667 13.311C26.6667 5.95318 20.7333 0 13.4 0V6.62207C17.0667 6.62207 20 9.63211 20 13.2441C20 16.7893 17.2667 19.6656 13.8 19.8662H13.4L23.7333 33.2442H31.5333L23.2 22.2742C25.3333 19.9331 26.6667 16.7893 26.6667 13.311Z" fill="black"/>
</svg>
