<svg width="52" height="52" viewBox="0 0 52 52" fill="none" xmlns="http://www.w3.org/2000/svg">
<path d="M4.1925 38.5776L4.13742 38.7788L0.710941 51.2966L13.534 47.9327L13.726 47.8823L13.9004 47.9774C17.59 49.9911 21.7565 51.0515 25.9851 51.0537C39.9112 51.0535 51.2466 39.7184 51.253 25.7875L4.1925 38.5776ZM4.1925 38.5776L4.08823 38.3969M4.1925 38.5776L4.08823 38.3969M4.08823 38.3969C1.87679 34.5646 0.714542 30.2201 0.716667 25.7641C0.72304 11.8353 12.0585 0.500085 25.9847 0.5L4.08823 38.3969ZM43.8592 7.91065C39.0867 3.13389 32.7443 0.502166 25.9848 0.5L43.8592 7.91065ZM43.8592 7.91065C48.6297 12.6875 51.2551 19.0343 51.253 25.7874L43.8592 7.91065Z" stroke="#1A1A1A"/>
</svg>
