<svg width="208" height="45" viewBox="0 0 208 45" fill="none" xmlns="http://www.w3.org/2000/svg">
<path d="M89.1429 19.7411V36.683H82.4663V22.0982C82.4663 19.4464 80.3386 17.3103 77.6974 17.3103C75.0561 17.3103 72.9284 19.4464 72.9284 22.0982V36.7567H66.2519V11.4911H72.9284V12.9643C75.9365 10.2388 80.0452 10.5335 80.0452 10.5335C85.1076 10.5335 89.1429 14.6585 89.1429 19.7411ZM172.49 11.4911H179.166V36.683H172.49V35.7991C170.509 36.9777 168.161 37.6406 165.666 37.6406C158.183 37.6406 152.166 31.6005 152.166 24.0871C152.166 16.5737 158.183 10.5335 165.666 10.5335C168.161 10.5335 170.509 11.1964 172.49 12.375V11.4911ZM172.856 24.0871C172.856 20.1094 169.628 16.8683 165.666 16.8683C161.704 16.8683 158.476 20.1094 158.476 24.0871C158.476 28.0647 161.704 31.3058 165.666 31.3058C169.628 31.3795 172.856 28.1384 172.856 24.0871ZM148.645 36.683H141.968V35.7991C139.987 36.9777 137.64 37.6406 135.145 37.6406C127.661 37.6406 121.645 31.6005 121.645 24.0871C121.645 16.5737 127.661 10.5335 135.145 10.5335C137.64 10.5335 139.987 11.1964 141.968 12.375V3.83036H148.645V36.683ZM142.408 24.0871C142.408 20.1094 139.18 16.8683 135.218 16.8683C131.256 16.8683 128.028 20.1094 128.028 24.0871C128.028 28.0647 131.256 31.3058 135.218 31.3058C139.18 31.3795 142.408 28.1384 142.408 24.0871ZM102.936 3.83036H96.2596V9.28125C96.2596 10.5335 95.2325 11.5647 93.9852 11.5647H91.564V17.6049H96.2596V30.2009C96.2596 33.8103 99.1944 36.7567 102.789 36.7567H107.705V30.7165H105.284C104.037 30.7165 103.01 29.6853 103.01 28.433V17.5313H107.705V11.4911H103.01V3.83036H102.936ZM61.3362 24.0871C61.3362 24.75 61.2628 25.413 61.1894 26.0022H59.3552H54.8063H40.8663C41.6734 29.096 44.4614 31.3058 47.8363 31.3058C50.4776 31.3058 52.752 29.9063 53.9993 27.8438L60.0155 29.9063C57.8145 34.4732 53.1922 37.6406 47.8363 37.6406C40.3527 37.6406 34.3365 31.6005 34.3365 24.0871C34.3365 16.5737 40.3527 10.5335 47.8363 10.5335C55.3199 10.5335 61.3362 16.6473 61.3362 24.0871ZM54.4395 21.067C53.2656 18.5625 50.7711 16.8683 47.9097 16.8683C45.0483 16.8683 42.4804 18.6362 41.3799 21.067H54.4395ZM200.443 11.4911L195.234 28.1384H195.161L190.025 11.4911H182.541L191.712 36.683L188.851 44.4174H195.968L208 11.4911H200.443ZM7.33686 14.7321H14.6737V7.36607H0V11.4911V14.7321V29.317V36.683H7.33686H14.6737V29.317H7.33686V14.7321ZM29.3474 14.6585C29.3474 6.55581 22.8176 0 14.7471 0V7.29241C18.7824 7.29241 22.0106 10.6071 22.0106 14.5848C22.0106 18.4888 19.0025 21.6563 15.1873 21.8772H14.7471L26.1192 36.6094H34.7034L25.5323 24.529C27.8801 21.9509 29.3474 18.4888 29.3474 14.6585Z" fill="url(#paint0_linear_185_49)"/>
<defs>
<linearGradient id="paint0_linear_185_49" x1="43.6524" y1="-36.4663" x2="160.55" y2="79.9678" gradientUnits="userSpaceOnUse">
<stop stop-color="#FEBE0C"/>
<stop offset="0.25" stop-color="#FC3172"/>
<stop offset="0.45" stop-color="#8759F2"/>
<stop offset="0.6" stop-color="#8759F2"/>
<stop offset="0.8" stop-color="#0096FD"/>
<stop offset="1" stop-color="#26F900"/>
</linearGradient>
</defs>
</svg>
