<?xml version="1.0" encoding="utf-8"?>
<!-- Generator: Adobe Illustrator 25.2.1, SVG Export Plug-In . SVG Version: 6.00 Build 0)  -->
<svg version="1.1" id="Слой_1" xmlns="http://www.w3.org/2000/svg" xmlns:xlink="http://www.w3.org/1999/xlink" x="0px" y="0px"
	 viewBox="0 0 1026 1026" style="enable-background:new 0 0 1026 1026;" xml:space="preserve">
<style type="text/css">
	.st0{fill:none;stroke:url(#SVGID_1_);stroke-width:14;stroke-linecap:round;stroke-linejoin:round;}
	.st1{fill:none;stroke:url(#SVGID_2_);stroke-width:14;stroke-linecap:round;stroke-linejoin:round;}
	.st2{fill:none;stroke:url(#SVGID_3_);stroke-width:14;stroke-linecap:round;stroke-linejoin:round;}
	.st3{fill:#394953;}
	.st4{fill:none;stroke:url(#SVGID_4_);stroke-width:14.7;stroke-linecap:round;stroke-linejoin:round;}
</style>
<linearGradient id="SVGID_1_" gradientUnits="userSpaceOnUse" x1="512.8668" y1="221.6718" x2="512.8668" y2="373.4496">
	<stop  offset="0" style="stop-color:#FD98D6"/>
	<stop  offset="1" style="stop-color:#8B9CFF"/>
</linearGradient>
<path class="st0" d="M512.9,228.7v137.8V228.7z"/>
<linearGradient id="SVGID_2_" gradientUnits="userSpaceOnUse" x1="617.3547" y1="303.9695" x2="617.3547" y2="455.7473" gradientTransform="matrix(0.7071 0.7071 -0.7071 0.7071 442.8708 -289.1247)">
	<stop  offset="0" style="stop-color:#5FDDA5"/>
	<stop  offset="1" style="stop-color:#50EFF7"/>
</linearGradient>
<path class="st1" d="M659.5,367.3l-97.4,97.4L659.5,367.3z"/>
<linearGradient id="SVGID_3_" gradientUnits="userSpaceOnUse" x1="536.7585" y1="698.0161" x2="536.7585" y2="849.7939" gradientTransform="matrix(0.7071 -0.7071 0.7071 0.7071 -510.8666 251.3155)">
	<stop  offset="0" style="stop-color:#FFDA44"/>
	<stop  offset="1" style="stop-color:#4DFEE1"/>
</linearGradient>
<path class="st2" d="M367.2,370.3l97.4,97.4L367.2,370.3z"/>
<g>
	<g>
		<path class="st3" d="M507.5,153.4c-1.7,0.7-5.7,3.7-9,6.7c-50.7,45.3-65.7,104.2-39.9,157.5c4.9,10.1,13.1,21.4,28.4,39.2
			c12.5,14.5,17,21.6,18.2,28.6c1,6.2,1,118.7,0,118.7c-0.4,0-2-2.1-3.6-4.6c-4.2-6.7-14.2-18.7-23.3-28.3l-6.8-7.1
			c-0.8-0.8-1.2-1.9-1.3-3l-0.5-18.4c-0.4-15-1.1-22.7-2.7-30.4c-8.2-39.5-33.2-72.3-68.6-90c-17.1-8.6-35.3-13.4-56.9-15.2
			c-30.5-2.5-39-0.6-41.6,9c-1.3,4.9,0.4,28.5,3,42.3c3.6,18.6,10.8,36.8,20.3,51.2c4.6,6.9,16.7,21.5,20.4,24.4
			c1,0.8,4.1,3.4,6.9,5.6c11.1,9.1,28.7,19,42.5,23.7c17.6,6,31.1,8.4,52.5,9.1l11.2,0.4c1.2,0,2.3,0.5,3.1,1.4l9.7,10.1
			c24.2,25.1,33.7,43.8,35.2,69.4l0.4,6.5c0.1,2.6-1.9,4.8-4.5,4.8l-80.1,0c-95.6,0-89.1-0.5-96.6,7.8c-5.5,6.1-6,8.9-5.6,34.2
			c0.4,25,0.7,26.5,7.5,33.3c5.1,5.1,9.8,7,18.1,7.5c4,0.2,7.2,0.6,7.2,0.8c0,0.2,5,25.7,11,56.6c25.3,128.7,24.1,123.8,31.1,135.3
			c4.9,8.1,14.9,17,23.8,21.3l6.6,3.2c0.6,0.3,1.3,0.4,1.9,0.4l83.9,0.3c59,0.2,86.6-0.1,90.3-0.8c14.8-3.1,29.2-14.8,36.4-29.6
			c4.4-9.1,4.7-10.2,16.8-72.9c3.8-19.8,10.4-53.4,14.5-74.8c4.2-21.3,7.6-39,7.6-39.2c0-0.3,2.6-0.5,5.9-0.5
			c11.1,0,20-5.1,24.5-14.2c2.5-5.1,2.6-5.4,2.6-28.5c0-25.4-0.4-27.9-5.8-33.6c-1.5-1.6-4.5-3.7-6.7-4.7c-3.8-1.8-8.4-1.9-89-1.9
			l-80.2,0c-2.6,0-4.7-2.2-4.5-4.8l0.4-8.5c0.5-10.8,1.1-14.6,3.4-20.8c5.7-15.8,16.2-31.3,33.5-49.4l7.7-8c0.9-0.9,2-1.4,3.3-1.4
			l11.9-0.1c19.6-0.1,30-1.7,47.1-7.2c43.1-13.9,74.8-45.2,89.3-87.9c3.9-11.5,6.6-26.3,7.8-43.3c1.1-14.5,1-15.7-0.8-19.3
			c-3.1-6.3-5.8-7.5-17-8.1c-12.4-0.7-34.8,1.2-47.4,3.9c-24.7,5.3-45.9,16.3-63.5,33c-11.4,10.8-20.4,22.9-27,36.4
			c-10.7,21.8-13.5,34.1-14.3,63l-0.5,19.2c0,1.1-0.5,2.2-1.3,3l-7.8,8c-7.7,7.9-17.3,19.7-23.9,29.3c-1.6,2.4-1.7-0.5-1.8-53.7
			c0-37.1,0.3-58,1-61.5c2-9.8,7.1-18.6,18.4-31.8c19.2-22.5,25-31.2,31.5-47.3c4.5-11.2,7-23.4,7.7-37.7
			c1.9-37.9-12.1-70.4-43.8-102.2C520.7,152.6,515.4,149.9,507.5,153.4 M690.6,581.4c1.8,1.3,2,3,2.2,22.2c0.2,14.8,0,21.6-0.9,23.7
			c-1.9,4.5-6,5.7-20,5.7c-10,0-12,0.2-11.1,1.3c0.6,0.7,0.9,2.4,0.6,3.8c-0.3,1.3-0.8,4.5-1.1,6.9c-0.3,2.5-3.9,21.6-7.9,42.5
			c-4,20.9-11.2,58-15.9,82.5s-9.3,47.2-10.1,50.5c-4.1,16.2-17.1,28-33.7,30.6c-3.8,0.6-37,0.9-84.3,0.7l-77.1-0.3
			c-0.6,0-1.2-0.1-1.7-0.3l-4.7-1.9c-10.7-4.4-20.1-14.5-24.1-26c-1.1-3.2-5.8-25.3-10.5-49.3c-4.7-23.9-12.1-61.7-16.5-83.9
			c-4.4-22.2-7.9-40.8-7.9-41.2s31.4-0.9,69.8-1c41-0.1,60.1-0.4,46.2-0.8c-23.3-0.5-23.5-0.5-19.8-2.3c2-1,4.1-1.8,4.8-1.8
			c1.6,0,1.3-1.2-0.8-3.8c-1.1-1.3-3-2.2-4.5-2.2c-1.5,0-2.4-0.4-2.1-0.9c0.3-0.5,9-1.3,19.3-1.8c15-0.7,3-1-60.5-1.4l-75.3-0.5
			c-2.5,0-4.9-1-6.7-2.8l0,0v0c-1.8-1.8-2.8-4.2-2.8-6.7v-17.5c0-19.6,0.2-21.5,1.9-23.5l0.6-0.6c0.9-1,2.1-1.5,3.4-1.5H513
			C663,580,688.9,580.2,690.6,581.4 M523.7,177.3c20.2,19.5,32.3,38.8,38.6,61.6c1.8,6.4,2.1,10.5,2.1,24.7c0,14.5-0.3,18.3-2.3,26
			c-4,15.4-11.6,30-22.6,42.9c-3.2,3.7-16.1,18.1-21.9,26.9l-0.6,1c-1.8,2.7-5.7,2.7-7.5,0.1l-1.2-1.7c-6.8-9.7-19.1-23.2-22.6-27.5
			c-17.3-21.4-24.2-40.8-24.1-67.7c0-11.2,0.5-15.8,2.4-22.9c6-23.3,17.2-41.7,37.9-62.2c5.8-5.7,10.9-10.4,11.4-10.4
			C513.7,168,518.4,172.2,523.7,177.3 M711.7,332.3c-1.1,21.2-6.5,41.9-15.4,59.1C675,432.4,630.6,458,580.4,458h-4.9
			c-2.4,0-4.4-1.8-4.5-4.2l-0.3-4.5c-1.4-20.5,3.3-44.2,12.5-62.6c5.7-11.5,11.1-19,21.3-29.5c23.1-23.9,54-35.8,93.5-36.1l9.6-0.1
			c2.6,0,4.7,2.2,4.6,4.8L711.7,332.3 M347.5,322.1c19.9,2.4,41.7,10.2,56.8,20.2c4.6,3.1,12.4,9.5,17.2,14.4
			c24.8,24.9,34.7,53,33.7,95.7l0,1.3c-0.1,2.5-2.2,4.5-4.8,4.4l-8.9-0.4c-64.6-3.1-111.9-41.5-123.8-100.7
			c-1.8-8.8-3.6-25-3.6-31.5l0,0c0-2.5,2-4.5,4.5-4.5l7.7,0C333,321,342.5,321.5,347.5,322.1"/>
	</g>
</g>
<linearGradient id="SVGID_4_" gradientUnits="userSpaceOnUse" x1="450.9463" y1="640.074" x2="693.7944" y2="640.074">
	<stop  offset="0" style="stop-color:#384952"/>
	<stop  offset="0.243" style="stop-color:#609FD2"/>
	<stop  offset="0.6844" style="stop-color:#73C6CE"/>
	<stop  offset="0.9749" style="stop-color:#384952"/>
</linearGradient>
<line class="st4" x1="686.4" y1="640.1" x2="458.3" y2="640.1"/>
</svg>
